<svg xmlns="http://www.w3.org/2000/svg" viewBox="0 0 1920 1080"><defs><style>.cls-1{fill:#3edaf8;}.cls-2,.cls-5,.cls-6{fill:none;stroke:#153643;stroke-width:4px;}.cls-2,.cls-6{stroke-linecap:round;}.cls-2{stroke-linejoin:round;}.cls-3{fill:#f4d40f;}.cls-4{fill:#f3457a;}.cls-5,.cls-6{stroke-miterlimit:10;}.cls-7{fill:#153643;}.cls-8{fill:#fff;}</style></defs><title>rc_visuals</title><g id="Layer_2" data-name="Layer 2"><rect class="cls-1" x="313.41" y="310.13" width="86.42" height="142.69"/><path class="cls-2" d="M317.64,324.4V434.92a14.5,14.5,0,0,0,14.51,14.5h49a14.5,14.5,0,0,0,14.5-14.5V324.84A10.88,10.88,0,0,0,384.81,314l-56.21-.43A10.87,10.87,0,0,0,317.64,324.4Z"/><polygon class="cls-2" points="328.52 330.97 328.52 422.23 385.33 422.23 385.33 327.95 328.52 327.95 328.52 330.97"/><circle class="cls-2" cx="356.92" cy="435.52" r="7.55"/><line class="cls-2" x1="348.16" y1="319.48" x2="365.08" y2="319.48"/><rect class="cls-3" x="1274.75" y="662.95" width="75.74" height="125.05"/><path class="cls-2" d="M1278.46,675.46v96.85A12.71,12.71,0,0,0,1291.17,785h42.9a12.72,12.72,0,0,0,12.72-12.71V675.84a9.53,9.53,0,0,0-9.46-9.53l-49.26-.39A9.53,9.53,0,0,0,1278.46,675.46Z"/><polygon class="cls-2" points="1287.99 681.21 1287.99 761.19 1337.78 761.19 1337.78 678.56 1287.99 678.56 1287.99 681.21"/><circle class="cls-2" cx="1312.89" cy="772.84" r="6.62"/><line class="cls-2" x1="1305.21" y1="671.15" x2="1320.04" y2="671.15"/><rect class="cls-4" x="1708.26" y="334.26" width="116.47" height="115.67"/><rect class="cls-1" x="1730.35" y="270" width="72.29" height="64.26"/><rect class="cls-3" x="1798.31" y="274.82" width="14.46" height="21.69"/><polyline class="cls-5" points="1746.9 329.29 1746.9 339.08 1785.1 339.08 1785.1 328.64 1746.9 328.64"/><path class="cls-6" d="M1836.78,369.83s27.26-4.36,27.26,56.76"/><path class="cls-6" d="M1696,369.83s-27.26-4.36-27.26,56.76"/><path class="cls-6" d="M1685.14,454s3.82-25.47-16.55-25.47S1653.31,454,1653.31,454"/><path class="cls-6" d="M1880,454s3.82-25.47-16.56-25.47S1848.12,454,1848.12,454"/><line class="cls-6" x1="1795.96" y1="444.42" x2="1795.96" y2="500.53"/><line class="cls-6" x1="1737.38" y1="444.42" x2="1737.38" y2="500.53"/><path class="cls-5" d="M1722.64,532.91a3.81,3.81,0,0,1-3.82-3.73c-.19-8.56,1.11-28.86,17.56-28.86,16.28,0,19.07,19.89,19.51,28.59a3.82,3.82,0,0,1-3.82,4Z"/><path class="cls-5" d="M1781.21,533.55a3.82,3.82,0,0,1-3.82-3.74c-.18-8.55,1.11-28.85,17.56-28.85,16.28,0,19.07,19.89,19.51,28.59a3.82,3.82,0,0,1-3.82,4Z"/><path class="cls-5" d="M1819.47,351.26l13.07.26a4.33,4.33,0,0,1,4.24,4.33v28.21a4.32,4.32,0,0,1-4.32,4.33h-13Z"/><path class="cls-5" d="M1713.79,351.26l-13.07.26a4.33,4.33,0,0,0-4.24,4.33v28.21a4.33,4.33,0,0,0,4.33,4.33h13Z"/><path class="cls-5" d="M1713.79,348v87.57a8.9,8.9,0,0,0,8.92,8.89h87.85a8.9,8.9,0,0,0,8.91-8.89V348a8.9,8.9,0,0,0-8.91-8.88h-87.85A8.9,8.9,0,0,0,1713.79,348Z"/><path class="cls-5" d="M1798.31,296.51l.1-14.18c0-1,1.14-1.89,2.55-1.89h3.24c1.4,0,2.54.85,2.54,1.89v14.18Z"/><rect class="cls-5" x="1735.44" y="276.34" width="61.12" height="52.2" rx="5.09"/><path class="cls-5" d="M1796.56,296.51l7.69.15a2.55,2.55,0,0,1,2.49,2.55v16.6a2.55,2.55,0,0,1-2.54,2.55h-7.64Z"/><path class="cls-5" d="M1735.44,296.51l-7.69.15a2.55,2.55,0,0,0-2.5,2.55v16.6a2.55,2.55,0,0,0,2.55,2.55h7.64Z"/><circle class="cls-7" cx="1753.26" cy="292.26" r="5.73"/><circle class="cls-7" cx="1778.73" cy="292.26" r="5.73"/><rect class="cls-4" x="99.18" y="845.79" width="124.67" height="123.81"/><rect class="cls-1" x="122.83" y="777" width="77.38" height="68.79"/><rect class="cls-3" x="195.58" y="782.16" width="15.48" height="23.22"/><polyline class="cls-5" points="140.54 840.47 140.54 850.95 181.43 850.95 181.43 839.77 140.54 839.77"/><path class="cls-6" d="M236.76,883.86s29.18-4.66,29.18,60.76"/><path class="cls-6" d="M86,883.86s-29.18-4.66-29.18,60.76"/><path class="cls-6" d="M74.44,973.93s4.09-27.26-17.72-27.26-16.35,27.26-16.35,27.26"/><path class="cls-6" d="M283,973.93s4.09-27.26-17.72-27.26-16.36,27.26-16.36,27.26"/><line class="cls-6" x1="193.06" y1="963.7" x2="193.06" y2="1023.77"/><line class="cls-6" x1="130.36" y1="963.7" x2="130.36" y2="1023.77"/><path class="cls-5" d="M114.58,1058.43a4.08,4.08,0,0,1-4.09-4c-.2-9.15,1.19-30.88,18.8-30.88,17.43,0,20.41,21.29,20.88,30.6a4.08,4.08,0,0,1-4.09,4.28Z"/><path class="cls-5" d="M177.27,1059.11a4.07,4.07,0,0,1-4.08-4c-.2-9.16,1.18-30.89,18.79-30.89,17.43,0,20.41,21.29,20.88,30.61a4.07,4.07,0,0,1-4.08,4.27Z"/><path class="cls-5" d="M218.23,864l14,.29a4.63,4.63,0,0,1,4.54,4.63v30.2a4.63,4.63,0,0,1-4.63,4.63h-13.9Z"/><path class="cls-5" d="M105.1,864l-14,.29a4.63,4.63,0,0,0-4.53,4.63v30.2a4.63,4.63,0,0,0,4.63,4.63H105.1Z"/><path class="cls-5" d="M105.11,860.45v93.74a9.52,9.52,0,0,0,9.54,9.51h94a9.52,9.52,0,0,0,9.54-9.51V860.45a9.53,9.53,0,0,0-9.54-9.51h-94A9.53,9.53,0,0,0,105.11,860.45Z"/><path class="cls-5" d="M195.58,805.37l.11-15.17c0-1.12,1.22-2,2.72-2h3.47c1.5,0,2.73.9,2.73,2v15.17Z"/><rect class="cls-5" x="128.28" y="783.79" width="65.42" height="55.88" rx="5.45"/><path class="cls-5" d="M193.7,805.38l8.23.16a2.73,2.73,0,0,1,2.68,2.73V826a2.73,2.73,0,0,1-2.73,2.73H193.7Z"/><path class="cls-5" d="M128.28,805.38l-8.23.16a2.73,2.73,0,0,0-2.68,2.73V826a2.73,2.73,0,0,0,2.73,2.73h8.18Z"/><circle class="cls-7" cx="147.36" cy="800.83" r="6.13"/><circle class="cls-7" cx="174.62" cy="800.83" r="6.13"/><rect class="cls-1" x="1718.58" y="621.43" width="184.19" height="123.63"/><rect class="cls-6" x="1725.64" y="628.58" width="170.07" height="109.33" rx="14.29"/><path class="cls-6" d="M1748.37,709.86A153,153,0,0,1,1749.7,686c2-14,6.8-29,18.22-29,21.46,0,19.08,52.94,19.08,52.94"/><line class="cls-6" x1="1785.57" y1="685.06" x2="1749.8" y2="685.06"/><path class="cls-2" d="M1799,709.86s-1.24-52.94,0-52.94c2.39,0,25.28-6.68,25.28,13.83s-24.32,12.4-24.32,12.4,27.66-3.34,27.66,13.36S1799,709.86,1799,709.86Z"/><path class="cls-2" d="M1871.12,657.26s-33.86-10.23-33.86,26.87c0,34.87,35.77,25.26,35.77,25.26"/><rect class="cls-3" x="31.22" y="322.27" width="149.31" height="100.22"/><rect class="cls-6" x="36.94" y="328.07" width="137.86" height="88.62" rx="11.58"/><path class="cls-6" d="M55.36,394a123.93,123.93,0,0,1,1.08-19.38C58.06,363.2,62,351,71.21,351,88.61,351,86.68,394,86.68,394"/><line class="cls-6" x1="85.52" y1="373.85" x2="56.52" y2="373.85"/><path class="cls-2" d="M96.42,394s-1-42.92,0-42.92c1.93,0,20.49-5.41,20.49,11.22s-19.72,10.05-19.72,10.05,22.42-2.71,22.42,10.82S96.42,394,96.42,394Z"/><path class="cls-2" d="M154.87,351.32s-27.45-8.3-27.45,21.78c0,28.27,29,20.48,29,20.48"/><polygon class="cls-4" points="1478.22 555 1419.86 588.76 1478.27 622.49 1536.59 588.76 1478.22 555"/><polygon class="cls-3" points="1478.27 622.51 1419.89 588.73 1419.86 656.57 1478.33 689.99 1478.27 622.51"/><polygon class="cls-1" points="1536.56 588.73 1478.18 622.51 1478.13 689.99 1536.59 656.57 1536.56 588.73"/><path class="cls-6" d="M1477.41,562.48l-49.06,28.38a1.61,1.61,0,0,0,0,2.8l49.1,28.37a1.62,1.62,0,0,0,1.62,0l49-28.37a1.61,1.61,0,0,0,0-2.8L1479,562.48A1.62,1.62,0,0,0,1477.41,562.48Z"/><path class="cls-6" d="M1477.43,622l-49.07-28.4a1.63,1.63,0,0,0-2.44,1.4l0,57.05a1.62,1.62,0,0,0,.81,1.4l49.15,28.1a1.62,1.62,0,0,0,2.43-1.41l0-56.74A1.63,1.63,0,0,0,1477.43,622Z"/><path class="cls-6" d="M1528.14,593.64,1479.07,622a1.63,1.63,0,0,0-.81,1.4l0,56.74a1.62,1.62,0,0,0,2.43,1.41l49.14-28.1a1.61,1.61,0,0,0,.82-1.4l0-57.05A1.62,1.62,0,0,0,1528.14,593.64Z"/><polygon class="cls-4" points="105.7 618.7 52.4 649.54 105.74 680.35 159.01 649.54 105.7 618.7"/><polygon class="cls-3" points="105.74 680.37 52.42 649.51 52.4 711.47 105.79 742 105.74 680.37"/><polygon class="cls-1" points="158.98 649.51 105.67 680.37 105.61 742 159.01 711.47 158.98 649.51"/><path class="cls-6" d="M105,625.53,60.15,651.46a1.47,1.47,0,0,0,0,2.56L105,679.92a1.45,1.45,0,0,0,1.48,0L151.26,654a1.48,1.48,0,0,0,0-2.56l-44.82-25.93A1.5,1.5,0,0,0,105,625.53Z"/><path class="cls-6" d="M105,679.94,60.15,654a1.48,1.48,0,0,0-2.22,1.28l0,52.1a1.47,1.47,0,0,0,.74,1.28l44.89,25.67a1.49,1.49,0,0,0,2.22-1.29l-.05-51.82A1.47,1.47,0,0,0,105,679.94Z"/><path class="cls-6" d="M151.29,654l-44.82,25.94a1.48,1.48,0,0,0-.73,1.28l0,51.82a1.48,1.48,0,0,0,2.21,1.29l44.89-25.67a1.48,1.48,0,0,0,.75-1.28l0-52.1A1.49,1.49,0,0,0,151.29,654Z"/><polygon class="cls-3" points="1238.08 997.65 1238.08 997.65 1269.85 938.7 1238.08 997.65"/><polygon class="cls-1" points="1307.52 949.35 1329.63 987.84 1355.84 941.98 1313.25 855.99 1269.85 938.7 1287.87 975.55 1307.52 949.35"/><polygon class="cls-3" points="1355.84 941.98 1355.51 942.55 1329.63 987.84 1307.52 949.35 1287.87 975.55 1269.85 938.7 1238.08 997.65 1190.41 1086.1 1424.62 1086.1 1355.84 941.98"/><polygon class="cls-1" points="1528.63 949.35 1506.51 987.84 1480.31 941.98 1523.71 854.35 1566.3 938.7 1548.28 975.55 1528.63 949.35"/><polygon class="cls-3" points="1480.31 941.98 1480.64 942.55 1506.51 987.84 1528.63 949.35 1548.28 975.55 1566.3 938.7 1635.9 1086.1 1411.52 1086.1 1480.31 941.98"/><polygon class="cls-1" points="1398.42 945.25 1413.16 970.64 1432.81 936.24 1402.51 873.19 1369.76 939.52 1384.5 962.45 1398.42 945.25"/><polygon class="cls-3" points="1432.81 936.24 1413.16 970.64 1398.42 945.25 1384.5 962.45 1369.76 939.52 1298.51 1066.45 1504.88 1084.47 1432.81 936.24"/><path class="cls-2" d="M1204.86,1081.19l103-204.16a6.55,6.55,0,0,1,11.78.18l95.45,204"/><path class="cls-2" d="M1456.56,1000.12,1518.33,877a6.55,6.55,0,0,1,11.78.18l95.45,204"/><path class="cls-2" d="M1361.57,965.72l36.09-71.82a4.92,4.92,0,0,1,8.84.13l71.59,153"/><path class="cls-2" d="M1276.62,939l10.32,23.58a2.45,2.45,0,0,0,4.26.43l17.14-24.28,19.12,35.3a2.46,2.46,0,0,0,4.33,0l17.72-33"/><path class="cls-2" d="M1558.92,940.34l-9.27,22.21a2.44,2.44,0,0,1-4.25.43l-17.15-24.28L1509.13,974a2.45,2.45,0,0,1-4.32,0l-17.73-33"/><path class="cls-2" d="M1376.31,937.06l6.68,16.1a1.74,1.74,0,0,0,3,.3l12.16-17.22,13.56,25a1.74,1.74,0,0,0,3.06,0l12.29-22.57"/><circle class="cls-4" cx="1043.59" cy="978.7" r="60.04"/><circle class="cls-6" cx="1043.59" cy="978.7" r="54.28"/><circle class="cls-4" cx="836.08" cy="978.7" r="60.04"/><circle class="cls-6" cx="836.08" cy="978.7" r="54.28"/><rect class="cls-3" x="807.43" y="865.22" width="55.08" height="37.92"/><path class="cls-6" d="M883.71,841.72c-20.68-6.65-23.63,4.43-24.37,6.64-4.53,13.59,8,18.41,14.62,20a3.48,3.48,0,0,1,2.46,4.57l-34.35,95.9a3.49,3.49,0,0,1-6.6-.08l-18.16-54.49a3.48,3.48,0,0,1,3.31-4.59H861a3.45,3.45,0,0,1,2.3.86l97.38,85.11a3.49,3.49,0,0,0,3.05.78l76.19-16.85a3.5,3.5,0,0,0,2-5.62L987.1,906.7"/><path class="cls-6" d="M810.6,872.53v13.65a13.89,13.89,0,0,0,13.88,13.88h21a13.88,13.88,0,0,0,13.88-13.88V872.53a4.23,4.23,0,0,0-4.23-4.23H814.84A4.24,4.24,0,0,0,810.6,872.53Z"/><line class="cls-6" x1="993.74" y1="883.81" x2="961.99" y2="996.79"/><path class="cls-7" d="M994.48,872.73c-6.24,3-26.58-1.47-27.32,4.43s29.79,7.36,39.87,6.65c5-.35,18.47-2.95,17.73-9.6S1011.47,864.61,994.48,872.73Z"/><path class="cls-6" d="M1026.7,955.33S944.27,982,871.49,886.66"/><path class="cls-7" d="M1725.76,886.55c-22.19,0-40.17-10.52-40.17-23.5v57.7a11.39,11.39,0,0,0,5.81,9.73c12.2,7.24,41.69,20.27,70-1.3a11.12,11.12,0,0,0,4.5-8.84V863.05C1765.94,876,1748,886.55,1725.76,886.55Z"/><path class="cls-3" d="M1766.13,862.38c-.54-14.58-18.4-26.3-40.37-26.3s-39.83,11.72-40.36,26.3c0,.23,0,.45,0,.67,0,14.9,18.09,27,40.39,27s40.39-12.08,40.39-27C1766.15,862.83,1766.14,862.61,1766.13,862.38Z"/><path class="cls-2" d="M1761.89,862.47c-.47-12.71-16.46-22.92-36.13-22.92s-35.65,10.21-36.13,22.92c0,.19,0,.39,0,.58,0,13,16.19,23.5,36.15,23.5s36.16-10.52,36.16-23.5C1761.92,862.86,1761.9,862.66,1761.89,862.47Z"/><ellipse class="cls-4" cx="1725.76" cy="864.22" rx="18.31" ry="11.9"/><ellipse class="cls-2" cx="1725.76" cy="864.22" rx="13.46" ry="8.75"/><path class="cls-7" d="M1786.26,947.05c-22.19,0-40.17-10.52-40.17-23.5v57.7a11.39,11.39,0,0,0,5.81,9.73c12.2,7.24,41.69,20.28,70-1.3a11.14,11.14,0,0,0,4.49-8.84V923.55C1826.44,936.53,1808.45,947.05,1786.26,947.05Z"/><path class="cls-3" d="M1826.63,922.88c-.53-14.58-18.39-26.3-40.37-26.3s-39.83,11.72-40.36,26.3c0,.23,0,.45,0,.67,0,14.9,18.09,27,40.39,27s40.4-12.08,40.4-27C1826.66,923.33,1826.64,923.11,1826.63,922.88Z"/><path class="cls-2" d="M1822.4,923c-.48-12.71-16.47-22.92-36.14-22.92s-35.65,10.21-36.13,22.92c0,.2,0,.39,0,.58,0,13,16.19,23.5,36.15,23.5s36.16-10.52,36.16-23.5C1822.42,923.36,1822.4,923.17,1822.4,923Z"/><ellipse class="cls-4" cx="1786.26" cy="924.72" rx="18.31" ry="11.9"/><ellipse class="cls-2" cx="1786.26" cy="924.72" rx="13.46" ry="8.75"/><path class="cls-7" d="M444.67,633.3c-23.9,0-43.28-11.22-43.28-25.07v61.56a12.14,12.14,0,0,0,6.26,10.38c13.14,7.72,44.91,21.63,75.45-1.39a11.83,11.83,0,0,0,4.84-9.43V608.23C487.94,622.08,468.57,633.3,444.67,633.3Z"/><path class="cls-3" d="M487.66,607.51c-.57-15.56-19.63-28.06-43.07-28.06s-42.5,12.5-43.07,28.06c0,.24,0,.48,0,.72,0,15.89,19.3,28.78,43.1,28.78s43.1-12.89,43.1-28.78C487.69,608,487.67,607.75,487.66,607.51Z"/><path class="cls-2" d="M483.14,607.61c-.51-13.56-17.57-24.46-38.55-24.46s-38,10.9-38.55,24.46c0,.2,0,.41,0,.62,0,13.85,17.27,25.07,38.58,25.07s38.57-11.22,38.57-25.07C483.16,608,483.15,607.81,483.14,607.61Z"/><ellipse class="cls-1" cx="444.59" cy="609.47" rx="19.54" ry="12.7"/><ellipse class="cls-2" cx="444.59" cy="609.47" rx="14.36" ry="9.33"/><path class="cls-8" d="M406,607.61v.62c0-.21,0-.42,0-.62Z"/><path class="cls-8" d="M483.14,607.61c0,.2,0,.41,0,.62v-.62Z"/><path class="cls-7" d="M508.86,697.86c-23.5,0-42.55-11.23-42.55-25.08v61.56a12.16,12.16,0,0,0,6.15,10.38c12.92,7.73,44.16,21.64,74.19-1.38a11.92,11.92,0,0,0,4.77-9.44V672.78C551.42,686.63,532.36,697.86,508.86,697.86Z"/><path class="cls-3" d="M552.21,672.07C551.64,656.5,532.59,644,509.14,644s-42.5,12.5-43.07,28.07c0,.24,0,.47,0,.71,0,15.9,19.29,28.78,43.09,28.78s43.1-12.88,43.1-28.78C552.24,672.54,552.22,672.31,552.21,672.07Z"/><path class="cls-2" d="M547.69,672.16c-.51-13.56-17.56-24.45-38.55-24.45s-38,10.89-38.55,24.45c0,.21,0,.41,0,.62,0,13.85,17.27,25.08,38.57,25.08s38.58-11.23,38.58-25.08C547.72,672.57,547.7,672.37,547.69,672.16Z"/><ellipse class="cls-1" cx="509.14" cy="674.03" rx="19.54" ry="12.7"/><ellipse class="cls-2" cx="509.14" cy="674.03" rx="14.36" ry="9.33"/><path class="cls-8" d="M470.57,672.16v.62c0-.21,0-.41,0-.62Z"/><path class="cls-8" d="M547.69,672.16c0,.21,0,.41,0,.62v-.62Z"/><polygon class="cls-1" points="427.43 958.26 496.54 986.26 519.18 1051.8 550.75 1007.11 613.31 1030.94 635.95 876.64 427.43 958.26"/><polygon class="cls-2" points="439.34 958.26 500.71 982.09 520.96 1039.28 531.69 994 609.73 1023.79 629.39 883.79 439.34 958.26"/><polyline class="cls-2" points="501.01 982.39 629.69 884.08 531.39 993.71"/><line class="cls-2" x1="548.4" y1="1000.38" x2="521.26" y2="1039.58"/><polygon class="cls-3" points="1377.88 399.14 1429.95 420.24 1447.01 469.61 1470.8 435.95 1517.93 453.9 1534.98 337.65 1377.88 399.14"/><polygon class="cls-2" points="1386.86 399.14 1433.09 417.09 1448.35 460.19 1456.43 426.07 1515.23 448.51 1530.05 343.03 1386.86 399.14"/><polyline class="cls-2" points="1433.32 417.32 1530.27 343.26 1456.21 425.85"/><line class="cls-2" x1="1469.03" y1="430.88" x2="1448.58" y2="460.41"/><rect class="cls-4" x="356.74" y="815.77" width="54.69" height="53.34"/><path class="cls-6" d="M359.33,817.91v34.88A14.18,14.18,0,0,0,373.51,867h21.15a14.18,14.18,0,0,0,14.18-14.18V817.91Z"/><path class="cls-6" d="M408.84,826.77s15.53-6.83,15.53,7.34c0,11.93-15.53,16.43-15.53,16.43"/><path class="cls-6" d="M384.87,781s7.47,6.7,7,11.93c-.9,9.68-8.1,13.5-7.88,19.58"/><path class="cls-6" d="M375.56,784.61s5.75,5.16,5.38,9.19c-.7,7.47-6.25,10.42-6.08,15.1"/><path class="cls-6" d="M395.59,784.61s5.75,5.16,5.38,9.19c-.7,7.47-6.25,10.42-6.08,15.1"/><rect class="cls-4" x="1549.54" y="759.18" width="52.4" height="51.1"/><path class="cls-6" d="M1552,761.22v33.43a13.59,13.59,0,0,0,13.59,13.58h20.27a13.58,13.58,0,0,0,13.58-13.58V761.22Z"/><path class="cls-6" d="M1599.46,769.71s14.88-6.54,14.88,7c0,11.43-14.88,15.74-14.88,15.74"/><path class="cls-6" d="M1576.5,725.86s7.15,6.42,6.68,11.43c-.86,9.27-7.76,12.94-7.54,18.76"/><path class="cls-6" d="M1567.57,729.32s5.51,4.95,5.16,8.81c-.67,7.15-6,10-5.82,14.46"/><path class="cls-6" d="M1586.76,729.32s5.52,4.95,5.16,8.81c-.67,7.15-6,10-5.82,14.46"/><path class="cls-4" d="M206.18,581.69l10.31-81a.33.33,0,0,1,.59-.18l27.58,32.3a4,4,0,0,0,1,.13h9.85a9,9,0,0,0,1.48-.13l27.7-32.3a.34.34,0,0,1,.6.18l9.92,81.11c2.39,19.54-12.06,36.85-30.77,36.85h-27.5C218.16,618.7,203.69,601.28,206.18,581.69Z"/><path class="cls-2" d="M211.21,574l8.08-60.29a1,1,0,0,1,1.67-.48l20.11,24.14a7.84,7.84,0,0,0,6,2.82h7.49a7.84,7.84,0,0,0,6-2.82l20.1-24.13a1,1,0,0,1,1.67.49l7.79,60.45a35.64,35.64,0,0,1-35.35,40.2h-8.29A35.65,35.65,0,0,1,211.21,574Z"/><circle class="cls-2" cx="232.2" cy="565.78" r="9.18"/><circle class="cls-2" cx="268.93" cy="565.78" r="9.18"/><path class="cls-7" d="M268.61,558.76s-6.79,8.42,0,14C268.61,572.8,276.81,566.48,268.61,558.76Z"/><path class="cls-7" d="M231.35,558.76s-6.8,8.42,0,14C231.35,572.8,239.55,566.48,231.35,558.76Z"/><path class="cls-7" d="M251.23,591.77l-5.29-5.3a.68.68,0,0,1,.48-1.17H257a.68.68,0,0,1,.48,1.17l-5.29,5.3A.69.69,0,0,1,251.23,591.77Z"/><path class="cls-2" d="M251.39,590.71V594s-3.07,4.82-6.14.44"/><path class="cls-2" d="M258.18,594.22s-3.51,4.7-6.79-.5"/></g></svg>